<svg width="26" height="26" viewBox="0 0 26 26" fill="none" xmlns="http://www.w3.org/2000/svg">
<circle cx="13" cy="13" r="12" stroke="#132241" stroke-opacity="0.4" stroke-linecap="round" stroke-linejoin="round"/>
<path fill-rule="evenodd" clip-rule="evenodd" d="M13.5 9C13.5 8.72386 13.2761 8.5 13 8.5C12.7239 8.5 12.5 8.72386 12.5 9V12.5H9C8.72386 12.5 8.5 12.7239 8.5 13C8.5 13.2761 8.72386 13.5 9 13.5H12.5V17C12.5 17.2761 12.7239 17.5 13 17.5C13.2761 17.5 13.5 17.2761 13.5 17V13.5H17C17.2761 13.5 17.5 13.2761 17.5 13C17.5 12.7239 17.2761 12.5 17 12.5H13.5V9Z" fill="#132241" fill-opacity="0.4"/>
</svg>
