<svg width="12" height="13" viewBox="0 0 12 13" fill="none" xmlns="http://www.w3.org/2000/svg">
<path fill-rule="evenodd" clip-rule="evenodd" d="M9 10.5C9.55228 10.5 10 10.0523 10 9.5L10 3.5C10 2.94772 9.55228 2.5 9 2.5L3 2.5C2.44771 2.5 2 2.94771 2 3.5L2 9.5C2 10.0523 2.44771 10.5 3 10.5L9 10.5ZM5.82322 8.01011L6 8.18689L6.17678 8.01011L7.51011 6.67678C7.60774 6.57915 7.60774 6.42086 7.51011 6.32322C7.41248 6.22559 7.25419 6.22559 7.15656 6.32322L6.25 7.22978L6.25 5.16667C6.25 5.0286 6.13807 4.91667 6 4.91667C5.86193 4.91667 5.75 5.0286 5.75 5.16667L5.75 7.22978L4.84344 6.32322C4.74581 6.22559 4.58752 6.22559 4.48989 6.32322C4.39226 6.42085 4.39226 6.57914 4.48989 6.67678L5.82322 8.01011Z" fill="#3D39FF" fill-opacity="0.5"/>
</svg>
