<svg width="12" height="12" viewBox="0 0 12 12" fill="none" xmlns="http://www.w3.org/2000/svg">
<path fill-rule="evenodd" clip-rule="evenodd" d="M9 10C9.55228 10 10 9.55228 10 9L10 3C10 2.44772 9.55228 2 9 2L3 2C2.44771 2 2 2.44771 2 3L2 9C2 9.55228 2.44771 10 3 10L9 10ZM5.82322 7.51011L6 7.68689L6.17678 7.51011L7.51011 6.17678C7.60774 6.07915 7.60774 5.92086 7.51011 5.82322C7.41248 5.72559 7.25419 5.72559 7.15656 5.82322L6.25 6.72978L6.25 4.66667C6.25 4.5286 6.13807 4.41667 6 4.41667C5.86193 4.41667 5.75 4.5286 5.75 4.66667L5.75 6.72978L4.84344 5.82322C4.74581 5.72559 4.58752 5.72559 4.48989 5.82322C4.39226 5.92085 4.39226 6.07914 4.48989 6.17678L5.82322 7.51011Z" fill="#3D39FF" fill-opacity="0.5"/>
</svg>
