<svg width="12" height="12" viewBox="0 0 12 12" fill="none" xmlns="http://www.w3.org/2000/svg">
<path fill-rule="evenodd" clip-rule="evenodd" d="M3 2.5C2.44772 2.5 2 2.94772 2 3.5V8.5C2 9.05228 2.44772 9.5 3 9.5H9C9.55228 9.5 10 9.05228 10 8.5V3.5C10 2.94772 9.55228 2.5 9 2.5H3ZM4.28572 4.25C4.14764 4.25 4.03572 4.36193 4.03572 4.5C4.03572 4.63807 4.14764 4.75 4.28572 4.75H7.71429C7.85236 4.75 7.96429 4.63807 7.96429 4.5C7.96429 4.36193 7.85236 4.25 7.71429 4.25H4.28572ZM4.03572 6C4.03572 5.86193 4.14764 5.75 4.28572 5.75H7.71429C7.85236 5.75 7.96429 5.86193 7.96429 6C7.96429 6.13807 7.85236 6.25 7.71429 6.25H4.28572C4.14764 6.25 4.03572 6.13807 4.03572 6ZM4.28572 7.25C4.14764 7.25 4.03572 7.36193 4.03572 7.5C4.03572 7.63807 4.14764 7.75 4.28572 7.75H7.71429C7.85236 7.75 7.96429 7.63807 7.96429 7.5C7.96429 7.36193 7.85236 7.25 7.71429 7.25H4.28572Z" fill="#3D39FF" fill-opacity="0.5"/>
</svg>
