<svg width="16" height="16" viewBox="0 0 16 16" fill="none" xmlns="http://www.w3.org/2000/svg">
<path fill-rule="evenodd" clip-rule="evenodd" d="M5.42677 11.3536C8.42388 11.3536 10.8536 8.92388 10.8536 5.92677C10.8536 2.92966 8.42388 0.5 5.42677 0.5C2.42966 0.5 0 2.92966 0 5.92677C0 8.92388 2.42966 11.3536 5.42677 11.3536Z" fill="#3D39FF"/>
<path fill-rule="evenodd" clip-rule="evenodd" d="M10.5732 15.7636C13.5704 15.7636 16.0001 13.334 16.0001 10.3368C16.0001 7.33968 13.5704 4.91003 10.5732 4.91003C7.57613 4.91003 5.14648 7.33968 5.14648 10.3368C5.14648 13.334 7.57613 15.7636 10.5732 15.7636Z" fill="#BC76FD"/>
<path fill-rule="evenodd" clip-rule="evenodd" d="M10.8505 5.92892C10.8505 8.92604 8.42089 11.3557 5.42374 11.3557C5.36156 11.3557 5.29963 11.3547 5.23796 11.3525C5.17598 11.0243 5.14355 10.6857 5.14355 10.3395C5.14355 7.34231 7.5732 4.91266 10.5703 4.91266C10.6325 4.91266 10.6944 4.91371 10.7561 4.91578C10.8181 5.24401 10.8505 5.58267 10.8505 5.92892Z" fill="#0500EE"/>
</svg>
