<svg width="12" height="12" viewBox="0 0 12 12" fill="none" xmlns="http://www.w3.org/2000/svg">
<path fill-rule="evenodd" clip-rule="evenodd" d="M3 2C2.44772 2 2 2.44772 2 3V9C2 9.55228 2.44772 10 3 10L9 10C9.55228 10 10 9.55228 10 9V3C10 2.44772 9.55228 2 9 2L3 2ZM7.19289 5.05715V4.80715H6.94289L5.05727 4.80715C4.9192 4.80715 4.80727 4.91908 4.80727 5.05715C4.80727 5.19522 4.9192 5.30715 5.05727 5.30715L6.33934 5.30715L4.8805 6.76599C4.78287 6.86362 4.78287 7.02191 4.8805 7.11955C4.97813 7.21718 5.13642 7.21718 5.23405 7.11955L6.69289 5.6607V6.94277C6.69289 7.08084 6.80482 7.19277 6.94289 7.19277C7.08096 7.19277 7.19289 7.08084 7.19289 6.94277V5.05715Z" fill="#3D39FF" fill-opacity="0.5"/>
</svg>
