<svg width="12" height="12" viewBox="0 0 12 12" fill="none" xmlns="http://www.w3.org/2000/svg">
<path fill-rule="evenodd" clip-rule="evenodd" d="M4 1.5C2.89543 1.5 2 2.39543 2 3.5C2 4.60457 2.89543 5.5 4 5.5H8C9.10457 5.5 10 4.60457 10 3.5C10 2.39543 9.10457 1.5 8 1.5H4ZM7.10535 2.96254C7.20298 2.86491 7.20298 2.70662 7.10535 2.60899C7.00772 2.51136 6.84943 2.51136 6.75179 2.60899L5.64286 3.71793L5.17678 3.25185C5.07915 3.15422 4.92085 3.15422 4.82322 3.25185C4.72559 3.34948 4.72559 3.50777 4.82322 3.6054L5.46608 4.24826L5.64286 4.42503L5.81963 4.24826L7.10535 2.96254Z" fill="#3D39FF" fill-opacity="0.5"/>
<path fill-rule="evenodd" clip-rule="evenodd" d="M4 6.5C2.89543 6.5 2 7.39543 2 8.5C2 9.60457 2.89543 10.5 4 10.5H8C9.10457 10.5 10 9.60457 10 8.5C10 7.39543 9.10457 6.5 8 6.5H4ZM7.10535 7.96254C7.20298 7.86491 7.20298 7.70662 7.10535 7.60899C7.00772 7.51136 6.84943 7.51136 6.75179 7.60899L5.64286 8.71793L5.17678 8.25185C5.07915 8.15422 4.92085 8.15422 4.82322 8.25185C4.72559 8.34948 4.72559 8.50777 4.82322 8.6054L5.46608 9.24826L5.64286 9.42503L5.81963 9.24826L7.10535 7.96254Z" fill="#3D39FF" fill-opacity="0.5"/>
</svg>
