<svg width="18" height="18" viewBox="0 0 18 18" fill="none" xmlns="http://www.w3.org/2000/svg">
<path fill-rule="evenodd" clip-rule="evenodd" d="M9.49985 0.75C9.49985 0.335786 9.16406 0 8.74985 0C8.33564 0 7.99985 0.335786 7.99985 0.75V8.0001H0.75C0.335786 8.0001 0 8.33588 0 8.7501C0 9.16431 0.335786 9.5001 0.75 9.5001H7.99985V16.75C7.99985 17.1642 8.33564 17.5 8.74985 17.5C9.16406 17.5 9.49985 17.1642 9.49985 16.75V9.5001H16.75C17.1642 9.5001 17.5 9.16431 17.5 8.7501C17.5 8.33588 17.1642 8.0001 16.75 8.0001H9.49985V0.75Z" fill="#132241" fill-opacity="0.4"/>
</svg>
