<svg width="12" height="12" viewBox="0 0 12 12" fill="none" xmlns="http://www.w3.org/2000/svg">
<path fill-rule="evenodd" clip-rule="evenodd" d="M2 3.5C2 2.39543 2.89543 1.5 4 1.5H8C9.10457 1.5 10 2.39543 10 3.5C10 4.60457 9.10457 5.5 8 5.5H4C2.89543 5.5 2 4.60457 2 3.5ZM7.10535 2.60899C7.20298 2.70662 7.20298 2.86491 7.10535 2.96254L5.81963 4.24826L5.64286 4.42503L5.46608 4.24826L4.82322 3.6054C4.72559 3.50777 4.72559 3.34948 4.82322 3.25185C4.92085 3.15422 5.07915 3.15422 5.17678 3.25185L5.64286 3.71793L6.75179 2.60899C6.84943 2.51136 7.00772 2.51136 7.10535 2.60899ZM4 7.5H8C8.55228 7.5 9 7.94772 9 8.5C9 9.05228 8.55228 9.5 8 9.5H4C3.44772 9.5 3 9.05228 3 8.5C3 7.94772 3.44772 7.5 4 7.5ZM2 8.5C2 7.39543 2.89543 6.5 4 6.5H8C9.10457 6.5 10 7.39543 10 8.5C10 9.60457 9.10457 10.5 8 10.5H4C2.89543 10.5 2 9.60457 2 8.5Z" fill="#3D39FF" fill-opacity="0.5"/>
</svg>
