<svg width="55" height="16" viewBox="0 0 55 16" fill="none" xmlns="http://www.w3.org/2000/svg">
<path d="M23.2105 6.94116H21V14H23.2105V6.94116Z" fill="#3D39FF" fill-opacity="0.6"/>
<path d="M33.5257 6.23529H29.8415V2.70588C29.8415 2.51867 29.7639 2.33913 29.6257 2.20675C29.4875 2.07437 29.3001 2 29.1046 2H28.3678L25.1734 5.79468C24.8565 6.1712 24.6836 6.64031 24.6836 7.124V12.5882C24.6836 12.9627 24.8389 13.3217 25.1152 13.5865C25.3916 13.8513 25.7664 14 26.1573 14H30.8987C31.3112 14 31.7155 13.8894 32.0659 13.6807C32.4162 13.4721 32.6986 13.1737 32.8811 12.8193L34.9994 8.70588V7.64706C34.9994 7.27264 34.8441 6.91355 34.5678 6.64879C34.2914 6.38403 33.9165 6.23529 33.5257 6.23529Z" fill="#3D39FF" fill-opacity="0.6"/>
</svg>
