<svg width="55" height="16" viewBox="0 0 55 16" fill="none" xmlns="http://www.w3.org/2000/svg">
<path d="M23.2105 9.05884H21V2.00002H23.2105V9.05884Z" fill="#FF6969" fill-opacity="0.6"/>
<path d="M33.5257 9.76471H29.8415V13.2941C29.8415 13.4813 29.7639 13.6609 29.6257 13.7933C29.4875 13.9256 29.3001 14 29.1046 14H28.3678L25.1734 10.2053C24.8565 9.8288 24.6836 9.35969 24.6836 8.876V3.41177C24.6836 3.03735 24.8389 2.67826 25.1152 2.4135C25.3916 2.14875 25.7664 2.00001 26.1573 2.00001H30.8987C31.3112 2.00001 31.7155 2.11059 32.0659 2.31926C32.4162 2.52792 32.6986 2.82634 32.8811 3.18076L34.9994 7.29412V8.35294C34.9994 8.72737 34.8441 9.08645 34.5678 9.35121C34.2914 9.61597 33.9165 9.76471 33.5257 9.76471Z" fill="#FF6969" fill-opacity="0.6"/>
</svg>
