<svg width="12" height="13" viewBox="0 0 12 13" fill="none" xmlns="http://www.w3.org/2000/svg">
<path fill-rule="evenodd" clip-rule="evenodd" d="M3 2.5C2.44772 2.5 2 2.94772 2 3.5V9.5C2 10.0523 2.44772 10.5 3 10.5H9C9.55228 10.5 10 10.0523 10 9.5V3.5C10 2.94772 9.55228 2.5 9 2.5H3ZM6.17678 4.98989L6 4.81311L5.82322 4.98989L4.48989 6.32322C4.39226 6.42085 4.39226 6.57915 4.48989 6.67678C4.58752 6.77441 4.74581 6.77441 4.84344 6.67678L5.75 5.77022V7.83333C5.75 7.97141 5.86193 8.08333 6 8.08333C6.13807 8.08333 6.25 7.97141 6.25 7.83333V5.77022L7.15656 6.67678C7.25419 6.77441 7.41248 6.77441 7.51011 6.67678C7.60774 6.57915 7.60774 6.42085 7.51011 6.32322L6.17678 4.98989Z" fill="#3D39FF" fill-opacity="0.5"/>
</svg>
