<svg width="12" height="12" viewBox="0 0 12 12" fill="none" xmlns="http://www.w3.org/2000/svg">
<path fill-rule="evenodd" clip-rule="evenodd" d="M3 2C2.44772 2 2 2.44772 2 3V9C2 9.55228 2.44772 10 3 10H9C9.55228 10 10 9.55228 10 9V3C10 2.44772 9.55228 2 9 2H3ZM6.17678 4.48989L6 4.31311L5.82322 4.48989L4.48989 5.82322C4.39226 5.92085 4.39226 6.07915 4.48989 6.17678C4.58752 6.27441 4.74581 6.27441 4.84344 6.17678L5.75 5.27022V7.33333C5.75 7.47141 5.86193 7.58333 6 7.58333C6.13807 7.58333 6.25 7.47141 6.25 7.33333V5.27022L7.15656 6.17678C7.25419 6.27441 7.41248 6.27441 7.51011 6.17678C7.60774 6.07915 7.60774 5.92085 7.51011 5.82322L6.17678 4.48989Z" fill="#3D39FF" fill-opacity="0.5"/>
</svg>
